<svg width="101" height="103" viewBox="0 0 101 103" fill="none" xmlns="http://www.w3.org/2000/svg">
<g clip-path="url(#clip0_4612_39)">
<path d="M86.2786 14.968C76.784 5.32137 64.1591 0.00588564 50.708 0C22.9901 0 0.433274 22.895 0.422177 51.0361C0.418947 60.0316 2.73388 68.8124 7.13395 76.5526L0 103L26.6571 95.9031C34.0016 99.9699 42.2711 102.113 50.6864 102.116H50.7078H50.708C78.4215 102.116 100.982 79.2173 100.993 51.0775C100.998 37.439 95.772 24.6153 86.2786 14.968ZM50.708 93.4961H50.6917C43.1907 93.4921 35.835 91.4474 29.4191 87.582L27.8922 86.663L12.0733 90.874L16.2967 75.2202L15.3019 73.6154C11.1178 66.8607 8.90894 59.0547 8.91209 51.0394C8.92128 27.6494 27.6697 8.62052 50.7238 8.62052C61.8879 8.62523 72.3808 13.0435 80.2724 21.0615C88.1635 29.0794 92.5061 39.7381 92.5028 51.0739C92.493 74.4647 73.744 93.4961 50.708 93.4961Z" fill="#E0E0E0"/>
<path d="M2 100.066L8.80808 74.827C4.60792 67.4403 2.39916 59.0599 2.40181 50.4771C2.41282 23.6219 23.9395 1.77344 50.3889 1.77344C63.2262 1.77932 75.2747 6.85173 84.3335 16.058C93.3943 25.2641 98.3812 37.5011 98.376 50.5152C98.365 77.371 76.837 99.2214 50.3909 99.2214C50.3889 99.2214 50.3922 99.2214 50.3909 99.2214H50.3695C42.3386 99.2188 34.4475 97.172 27.4389 93.2938L2 100.066Z" fill="url(#paint0_linear_4612_39)"/>
<path fill-rule="evenodd" clip-rule="evenodd" d="M37.8346 29.3689C36.9043 27.2688 35.9248 27.2268 35.0397 27.19C34.3157 27.1585 33.4869 27.1604 32.6595 27.1604C31.8313 27.1604 30.4857 27.4764 29.3476 28.7383C28.209 30.0002 25 33.0507 25 39.2549C25 45.4598 29.4512 51.4552 30.0716 52.2972C30.6927 53.138 38.664 66.277 51.2883 71.3316C61.7802 75.5324 63.9153 74.6968 66.1926 74.4866C68.47 74.2764 73.5409 71.4367 74.5761 68.4919C75.6112 65.5477 75.6112 63.0241 75.3007 62.4965C74.9901 61.971 74.162 61.6557 72.9198 61.0251C71.6776 60.3945 65.5716 57.3433 64.4329 56.9229C63.2942 56.5025 62.4661 56.2923 61.638 57.5549C60.8098 58.8161 58.4309 61.6557 57.7063 62.4965C56.9817 63.3393 56.2571 63.4444 55.0149 62.8138C53.7727 62.1812 49.7725 60.851 45.027 56.555C41.3347 53.2128 38.8419 49.0849 38.1173 47.8225C37.3927 46.5612 38.0396 45.8781 38.6627 45.2494C39.2204 44.6845 39.9049 43.7773 40.526 43.041C41.1457 42.3046 41.3528 41.7791 41.7668 40.9383C42.1809 40.0961 41.9739 39.3598 41.6633 38.7292C41.3528 38.0986 38.939 31.8624 37.8346 29.3689Z" fill="white"/>
<path d="M86.2882 14.8058C76.9026 5.26985 64.4225 0.0154912 51.126 0.00952148C23.7262 0.00952148 1.42831 22.6416 1.41729 50.4598C1.41406 59.352 3.70241 68.032 8.05196 75.6833L1 101.827L27.3511 94.8116C34.6114 98.8316 42.7859 100.95 51.1047 100.953H51.1258H51.126C78.5213 100.953 100.822 78.3173 100.834 50.5005C100.839 37.0187 95.6726 24.3423 86.2882 14.8058ZM51.126 92.4324H51.1099C43.6949 92.4285 36.4236 90.4073 30.0814 86.5862L28.5719 85.6777L12.9347 89.8404L17.1096 74.3663L16.1262 72.78C11.9901 66.1028 9.80659 58.3864 9.80982 50.4631C9.81885 27.3417 28.352 8.53125 51.1416 8.53125C62.1777 8.53588 72.5499 12.9034 80.3511 20.8294C88.1516 28.7553 92.4442 39.2916 92.441 50.4974C92.4312 73.6194 73.8974 92.4324 51.126 92.4324Z" fill="white"/>
</g>
<defs>
<linearGradient id="paint0_linear_4612_39" x1="50.188" y1="100.066" x2="50.188" y2="1.7736" gradientUnits="userSpaceOnUse">
<stop stop-color="#20B038"/>
<stop offset="1" stop-color="#60D66A"/>
</linearGradient>
<clipPath id="clip0_4612_39">
<rect width="101" height="103" fill="white"/>
</clipPath>
</defs>
</svg>
