<svg width="114" height="115" viewBox="0 0 114 115" fill="none" xmlns="http://www.w3.org/2000/svg">
<path d="M2.42703 56.6245C2.42415 66.2548 4.94056 75.6582 9.7252 83.9463L1.96924 112.265L30.9494 104.666C38.9334 109.018 47.9234 111.315 57.0723 111.317H57.0965C87.2243 111.317 111.749 86.8007 111.762 56.6677C111.768 42.0656 106.086 28.3353 95.7646 18.0053C85.4444 7.67594 71.7188 1.98436 57.0942 1.97803C26.9629 1.97803 2.4397 26.4926 2.42703 56.6245Z" fill="url(#paint0_linear_4957_1081)"/>
<path d="M0.475642 56.6066C0.472187 66.5836 3.07901 76.3233 8.03409 84.9079L0 114.242L30.0196 106.371C38.2909 110.88 47.6034 113.258 57.0799 113.262H57.1041C88.3128 113.262 113.719 87.8637 113.732 56.6521C113.737 41.5254 107.852 27.3016 97.1611 16.6014C86.469 5.90234 72.2521 0.00633422 57.1041 0C25.8897 0 0.488311 25.3939 0.475642 56.6066ZM18.3525 83.4297L17.2319 81.6504C12.5199 74.1581 10.0328 65.5004 10.0363 56.6101C10.0466 30.6674 31.1597 9.56121 57.122 9.56121C69.6942 9.5664 81.5104 14.4674 90.3973 23.36C99.2842 32.2533 104.174 44.0752 104.171 56.6486C104.159 82.5919 83.0456 103.701 57.1041 103.701H57.0857C48.6387 103.696 40.3547 101.428 33.1297 97.1416L31.4102 96.1217L13.5961 100.792L18.3525 83.4297Z" fill="url(#paint1_linear_4957_1081)"/>
<path d="M42.9508 32.9418C41.8907 30.5854 40.7753 30.5382 39.767 30.4967C38.9418 30.4616 37.998 30.4639 37.0554 30.4639C36.1116 30.4639 34.5787 30.8186 33.2825 32.2341C31.9851 33.65 28.3297 37.0728 28.3297 44.0341C28.3297 50.996 33.4005 57.7229 34.1071 58.6679C34.8148 59.6111 43.8958 74.3537 58.2773 80.0251C70.23 84.7384 72.6623 83.8009 75.2565 83.5648C77.8506 83.3293 83.628 80.1432 84.8067 76.839C85.9861 73.5355 85.9861 70.7035 85.6325 70.1121C85.2789 69.5224 84.3351 69.1683 82.9203 68.4612C81.5049 67.7535 74.5488 64.3301 73.252 63.8579C71.9546 63.3863 71.0114 63.1508 70.0676 64.5674C69.1244 65.9822 66.4145 69.1683 65.5887 70.1121C64.7636 71.0576 63.9378 71.1757 62.523 70.468C61.1076 69.758 56.5504 68.2654 51.1444 63.4456C46.9379 59.6952 44.0985 55.0637 43.2727 53.6472C42.4475 52.2323 43.1846 51.4659 43.894 50.7605C44.5298 50.1265 45.3094 49.1084 46.0171 48.2827C46.7231 47.4563 46.9586 46.8667 47.4303 45.9229C47.9024 44.9785 47.6663 44.1522 47.3128 43.4445C46.9586 42.7368 44.209 35.7398 42.9508 32.9418Z" fill="white"/>
<defs>
<linearGradient id="paint0_linear_4957_1081" x1="56.8656" y1="112.265" x2="56.8656" y2="1.97808" gradientUnits="userSpaceOnUse">
<stop stop-color="#1FAF38"/>
<stop offset="1" stop-color="#60D669"/>
</linearGradient>
<linearGradient id="paint1_linear_4957_1081" x1="56.8661" y1="114.242" x2="56.8661" y2="-0.000149806" gradientUnits="userSpaceOnUse">
<stop stop-color="#F9F9F9"/>
<stop offset="1" stop-color="white"/>
</linearGradient>
</defs>
</svg>
