<svg width="77" height="77" viewBox="0 0 77 77" fill="none" xmlns="http://www.w3.org/2000/svg">
<path d="M37.4863 1.26562C39.8396 1.19701 42.1934 1.3517 44.5166 1.72461L45.5117 1.89746C55.1389 3.75304 63.6467 9.32983 69.1885 17.418C74.8126 25.6338 76.9183 35.7571 75.0381 45.5342C73.1713 55.1754 67.574 63.6905 59.4639 69.2275H59.4629C50.9531 75.0494 41.1079 76.8449 30.9902 74.9463C26.7036 73.9981 24.2951 73.0435 20.4111 71.0469L20.0205 70.8457L19.5898 70.9336C18.1974 71.2173 16.2065 71.8378 14.9102 72.2002H14.9092L6.50684 74.5547H6.50586C5.94714 74.7116 4.99274 75.0105 3.97656 75.2783C3.48105 75.4089 3.01275 75.52 2.62891 75.5898C2.18682 75.6703 2.03136 75.6603 2.05859 75.665H2.05469C1.8194 75.6264 1.60703 75.5021 1.45703 75.3184L1.39648 75.2363C1.28986 75.0704 1.2473 74.8241 1.27148 74.6914C1.51594 73.3501 1.99002 71.8579 2.39941 70.4043V70.4023L4.72754 62.0947H4.72852C5.07103 60.8722 5.75774 58.6583 6.0166 57.3086L6.10742 56.833L5.85547 56.4209C5.44572 55.7509 4.83636 54.4701 4.47559 53.6611L4.47461 53.6602L4.12207 52.8467C2.41117 48.7649 1.44989 44.4052 1.28711 39.9775V39.9678L1.25781 39.0498C1.07242 29.5667 4.54774 20.3618 10.9824 13.3613L10.9863 13.3564C16.9724 6.7831 25.1191 2.57649 33.9443 1.50098H33.9463C35.0428 1.36587 36.3146 1.31306 37.4873 1.2666L37.4863 1.26562Z" stroke="white" stroke-width="2.50117"/>
<path d="M28.2354 19.0498C29.5406 19.0808 30.4098 19.3328 31.1553 19.748C31.9478 20.1896 32.6778 20.8541 33.6738 21.8633C34.5461 22.747 35.1391 23.3587 35.5762 24.0352C35.985 24.668 36.2745 25.3917 36.4199 26.4854V26.4863C36.626 28.1659 36.1106 29.8543 35.001 31.1318H35C34.8244 31.3343 34.6371 31.5143 34.4111 31.7295C34.2023 31.9284 33.9359 32.1803 33.7041 32.4648C33.1727 33.1173 32.8224 33.941 32.9766 35.0771L33.0127 35.3398L33.1514 35.5654C33.1664 35.5898 33.1816 35.6148 33.1963 35.6387C33.211 35.6625 33.2258 35.6857 33.2402 35.709L33.3047 35.8135L33.3887 35.9033C35.1607 37.8121 37.0404 39.6593 38.8838 41.4795L40.71 43.292C41.2562 43.8395 41.9183 44.1941 42.6836 44.1895C43.4043 44.1851 43.9883 43.8605 44.3994 43.5596C44.8107 43.2585 45.1872 42.8763 45.4775 42.582C45.8008 42.2543 46.0313 42.0214 46.2461 41.8584C47.5268 40.8913 49.1393 40.4728 50.7275 40.6963C52.6851 40.9823 53.6353 41.7822 55.1855 43.3857V43.3848C55.9167 44.1418 56.3724 44.5218 56.875 45.2031L56.877 45.2041C57.8173 46.4741 58.2166 48.0649 57.9893 49.6289C57.702 51.5054 56.9155 52.4851 55.3916 53.9795C54.5429 54.8118 54.0672 55.2636 53.1611 55.9326C51.3079 57.1487 49.1704 57.8625 46.958 58H46.9551C40.5726 58.4109 33.8415 55.3225 28.54 50.3984C23.2397 45.4754 19.5559 38.8889 19.0947 32.584C18.8399 29.1003 19.6842 25.4026 21.9512 22.9326C23.1023 21.6784 23.9247 20.7789 24.8623 20.1357C25.7334 19.5383 26.7342 19.1475 28.2354 19.0498Z" stroke="white" stroke-width="2.50117"/>
</svg>
