<svg width="44" height="44" viewBox="0 0 44 44" fill="none" xmlns="http://www.w3.org/2000/svg">
<path fill-rule="evenodd" clip-rule="evenodd" d="M24.3597 3.4651C22.3615 1.77856 19.4385 1.77856 17.4403 3.4651L15.6206 5.00105C14.7713 5.71787 13.7203 6.15323 12.6129 6.24688L10.2401 6.44754C7.63458 6.66788 5.56766 8.7348 5.34732 11.3403L5.14666 13.7131C5.05301 14.8205 4.61765 15.8715 3.90083 16.7208L2.36488 18.5405C0.678341 20.5387 0.678343 23.4617 2.36488 25.4599L3.90083 27.2796C4.61765 28.1289 5.05301 29.1799 5.14666 30.2873L5.34732 32.6603C5.56766 35.2657 7.63458 37.3327 10.2401 37.5529L12.6129 37.7535C13.7203 37.8473 14.7713 38.2826 15.6206 38.9995L17.4403 40.5354C19.4385 42.2218 22.3615 42.2218 24.3597 40.5354L26.1794 38.9995C27.0287 38.2826 28.0797 37.8473 29.1871 37.7535L31.56 37.5529C34.1655 37.3327 36.2325 35.2657 36.4526 32.6603L36.6532 30.2873C36.7471 29.1799 37.1824 28.1289 37.8993 27.2796L39.4352 25.4599C41.1216 23.4617 41.1216 20.5387 39.4352 18.5405L37.8993 16.7208C37.1824 15.8715 36.7471 14.8205 36.6532 13.7131L36.4526 11.3403C36.2325 8.7348 34.1655 6.66788 31.56 6.44754L29.1871 6.24688C28.0797 6.15323 27.0287 5.71787 26.1794 5.00105L24.3597 3.4651Z" fill="#D01D1D"/>
<path d="M27.5 15.3999L14.3 28.5999" stroke="white" stroke-width="2" stroke-linecap="round"/>
<path d="M27.5 28.5999L14.3 15.3999" stroke="white" stroke-width="2" stroke-linecap="round"/>
</svg>
