<svg width="20" height="20" viewBox="0 0 20 20" fill="none" xmlns="http://www.w3.org/2000/svg">
<path fill-rule="evenodd" clip-rule="evenodd" d="M11.0726 1.57496C10.1643 0.808348 8.83568 0.808349 7.92742 1.57496L7.10026 2.27312C6.71423 2.59894 6.23652 2.79683 5.73315 2.8394L4.65458 2.93061C3.47028 3.03077 2.53077 3.97028 2.43061 5.15458L2.3394 6.23315C2.29683 6.73652 2.09894 7.21423 1.77312 7.60027L1.07496 8.42742C0.308348 9.33568 0.308349 10.6643 1.07496 11.5726L1.77312 12.3997C2.09894 12.7858 2.29683 13.2635 2.3394 13.7669L2.43061 14.8455C2.53077 16.0298 3.47028 16.9693 4.65458 17.0694L5.73315 17.1606C6.23652 17.2032 6.71423 17.4011 7.10027 17.7269L7.92742 18.4251C8.83568 19.1916 10.1643 19.1916 11.0726 18.4251L11.8997 17.7269C12.2858 17.4011 12.7635 17.2032 13.2669 17.1606L14.3455 17.0694C15.5298 16.9693 16.4693 16.0298 16.5694 14.8455L16.6606 13.7669C16.7032 13.2635 16.9011 12.7858 17.2269 12.3997L17.9251 11.5726C18.6916 10.6643 18.6916 9.33568 17.9251 8.42742L17.2269 7.60026C16.9011 7.21423 16.7032 6.73652 16.6606 6.23315L16.5694 5.15458C16.4693 3.97028 15.5298 3.03077 14.3455 2.93061L13.2669 2.8394C12.7635 2.79683 12.2858 2.59894 11.8997 2.27312L11.0726 1.57496Z" fill="#D01D1D"/>
<path d="M12.5 7L6.5 13" stroke="white" stroke-linecap="round"/>
<path d="M12.5 13L6.5 7" stroke="white" stroke-linecap="round"/>
</svg>
