<svg width="33" height="33" viewBox="0 0 33 33" fill="none" xmlns="http://www.w3.org/2000/svg">
<g clip-path="url(#clip0_70_3804)">
<path d="M1.31836 25.7813C3.41111 22.5638 6.98886 20.6223 10.8279 20.6223C14.6669 20.6223 18.2446 22.5638 20.3374 25.7813" stroke="#D4E5C0" stroke-width="2" stroke-linecap="round" stroke-linejoin="round"/>
<path d="M22.1719 20.625C26.0109 20.6223 29.5886 22.5638 31.6814 25.7813" stroke="#D4E5C0" stroke-width="2" stroke-linecap="round" stroke-linejoin="round"/>
<path d="M4.125 13.9219C4.125 10.2204 7.12663 7.21875 10.8281 7.21875C14.5296 7.21875 17.5312 10.2204 17.5312 13.9219C17.5312 17.6234 14.5296 20.625 10.8281 20.625C7.12663 20.625 4.125 17.6234 4.125 13.9219Z" stroke="#D4E5C0" stroke-width="2" stroke-linecap="round" stroke-linejoin="round"/>
<path d="M19.6836 7.69578C22.1916 6.69615 25.0543 7.29703 26.9463 9.22203C28.8397 11.1484 29.3925 14.0208 28.3502 16.5109C27.308 19.001 24.8728 20.6222 22.1723 20.6249" stroke="#D4E5C0" stroke-width="2" stroke-linecap="round" stroke-linejoin="round"/>
</g>
<defs>
<clipPath id="clip0_70_3804">
<rect width="33" height="33" fill="white"/>
</clipPath>
</defs>
</svg>
