<svg width="183" height="40" viewBox="0 0 183 40" fill="none" xmlns="http://www.w3.org/2000/svg">
<path d="M62.9709 29H59.6829L53.0784 20.9783H50.2439V29H47.8345V10.0087H50.2439V18.7107H53.0501L59.286 10.0087H62.319L55.2043 19.8161L62.9709 29ZM77.2576 29H74.99V26.6757C74.4609 27.4694 73.7617 28.1024 72.8924 28.5748C72.0421 29.0283 70.9649 29.2551 69.6611 29.2551C68.6217 29.2551 67.658 29.0567 66.7698 28.6599C65.8817 28.263 65.1164 27.7245 64.4739 27.0442C63.8314 26.3639 63.3212 25.5702 62.9432 24.6632C62.5842 23.7561 62.4047 22.7924 62.4047 21.772C62.4047 20.7137 62.5842 19.7311 62.9432 18.824C63.3212 17.8981 63.8314 17.095 64.4739 16.4147C65.1164 15.7344 65.8817 15.1958 66.7698 14.799C67.658 14.4022 68.6217 14.2038 69.6611 14.2038C70.9649 14.2038 72.0421 14.44 72.8924 14.9124C73.7617 15.3659 74.4609 15.999 74.99 16.8115V14.4872H77.2576V29ZM74.99 20.8082C74.9144 20.2035 74.7349 19.6366 74.4514 19.1075C74.1869 18.5784 73.8373 18.1154 73.4026 17.7186C72.968 17.3217 72.4578 17.0099 71.872 16.7832C71.2862 16.5564 70.6437 16.443 69.9445 16.443C69.1508 16.443 68.4328 16.5942 67.7903 16.8966C67.1478 17.18 66.6092 17.5674 66.1746 18.0587C65.74 18.55 65.3998 19.1169 65.1542 19.7594C64.9274 20.4019 64.814 21.0728 64.814 21.772C64.814 22.4522 64.9274 23.1136 65.1542 23.7561C65.3998 24.3797 65.74 24.9372 66.1746 25.4285C66.6092 25.9009 67.1478 26.2883 67.7903 26.5907C68.4328 26.8741 69.1508 27.0158 69.9445 27.0158C70.6437 27.0158 71.2767 26.9024 71.8436 26.6757C72.4294 26.4489 72.9397 26.1466 73.3743 25.7686C73.8089 25.3907 74.168 24.9466 74.4514 24.4364C74.7349 23.9073 74.9144 23.3498 74.99 22.764V20.8082ZM79.2291 21.7436C79.2291 20.6854 79.4276 19.7027 79.8244 18.7957C80.2212 17.8698 80.7598 17.0666 81.4401 16.3864C82.1204 15.7061 82.914 15.177 83.8211 14.799C84.747 14.4022 85.7297 14.2038 86.769 14.2038C87.6193 14.2038 88.4319 14.336 89.2067 14.6006C89.9814 14.8463 90.6806 15.2053 91.3042 15.6777C91.9278 16.1312 92.4569 16.6793 92.8916 17.3217C93.3262 17.9453 93.638 18.6351 93.827 19.391H91.2192C90.8979 18.5406 90.3499 17.8414 89.5752 17.2934C88.8004 16.7265 87.865 16.443 86.769 16.443C85.9942 16.443 85.2856 16.5942 84.6431 16.8966C84.0195 17.18 83.4809 17.5674 83.0274 18.0587C82.5928 18.55 82.2526 19.1169 82.007 19.7594C81.7802 20.4019 81.6668 21.0633 81.6668 21.7436C81.6668 22.4239 81.7802 23.0853 82.007 23.7278C82.2526 24.3514 82.5928 24.9088 83.0274 25.4001C83.4809 25.8915 84.0195 26.2883 84.6431 26.5907C85.2856 26.8741 85.9942 27.0158 86.769 27.0158C87.865 27.0158 88.8004 26.7418 89.5752 26.1938C90.3499 25.6458 90.8979 24.9466 91.2192 24.0963H93.827C93.638 24.8521 93.3262 25.5513 92.8916 26.1938C92.4569 26.8174 91.9278 27.356 91.3042 27.8095C90.6806 28.263 89.9814 28.6221 89.2067 28.8866C88.4319 29.1323 87.6193 29.2551 86.769 29.2551C85.7297 29.2551 84.747 29.0567 83.8211 28.6599C82.914 28.263 82.1204 27.7245 81.4401 27.0442C80.7598 26.3639 80.2212 25.5702 79.8244 24.6632C79.4276 23.7561 79.2291 22.7829 79.2291 21.7436ZM99.8001 10.0087V14.4872H104.08V16.6131H99.8001V24.7766C99.8001 25.7403 99.9985 26.3828 100.395 26.704C100.792 27.0253 101.321 27.1859 101.983 27.1859C102.568 27.1859 103.268 27.1103 104.08 26.9591V29.085C103.646 29.1417 103.211 29.189 102.776 29.2268C102.361 29.2835 101.964 29.3118 101.586 29.3118C101 29.3118 100.452 29.2457 99.9418 29.1134C99.4505 28.9811 99.0253 28.7543 98.6662 28.4331C98.3072 28.093 98.0238 27.6394 97.8159 27.0725C97.6269 26.4867 97.5324 25.7592 97.5324 24.8899V16.6131H94.6979V14.4872H97.5324V10.0087H99.8001ZM118.965 29H116.697V26.2222C116.13 27.167 115.374 27.9134 114.429 28.4614C113.484 29.0094 112.417 29.2835 111.226 29.2835C110.414 29.2835 109.686 29.1512 109.044 28.8866C108.401 28.6032 107.853 28.2252 107.4 27.7528C106.965 27.2804 106.634 26.7229 106.408 26.0804C106.181 25.419 106.067 24.7104 106.067 23.9545V14.4872H108.335V23.501C108.335 24.6915 108.675 25.5986 109.356 26.2222C110.036 26.8269 110.915 27.1292 111.992 27.1292C112.653 27.1292 113.258 26.978 113.806 26.6757C114.373 26.3544 114.864 25.9482 115.28 25.4568C115.695 24.9466 116.026 24.3892 116.272 23.7845C116.536 23.1609 116.678 22.5373 116.697 21.9137V14.4872H118.965V29ZM121.551 18.4556C121.551 17.1517 122.032 16.1218 122.996 15.3659C123.979 14.5911 125.311 14.2038 126.993 14.2038C128.656 14.2038 129.979 14.5817 130.961 15.3376C131.944 16.0934 132.464 17.1328 132.52 18.4556H130.111C130.073 17.8131 129.78 17.3028 129.232 16.9249C128.703 16.5281 128.004 16.3297 127.135 16.3297C125.018 16.3297 123.96 17.0099 123.96 18.3705C123.96 18.8429 124.083 19.2209 124.328 19.5043C124.593 19.7878 124.933 20.024 125.349 20.213C125.765 20.383 126.237 20.5248 126.766 20.6381C127.314 20.7515 127.862 20.8744 128.41 21.0066C128.958 21.12 129.497 21.2617 130.026 21.4318C130.574 21.6019 131.056 21.8381 131.471 22.1404C131.887 22.4239 132.218 22.7924 132.464 23.2459C132.728 23.6994 132.86 24.2663 132.86 24.9466C132.86 26.2883 132.36 27.3371 131.358 28.093C130.375 28.8488 128.996 29.2268 127.22 29.2268C126.313 29.2268 125.491 29.1228 124.754 28.915C124.017 28.7071 123.384 28.4236 122.855 28.0646C122.344 27.6867 121.947 27.2331 121.664 26.704C121.381 26.1749 121.239 25.5891 121.239 24.9466H123.677C123.941 26.3828 125.16 27.1009 127.333 27.1009C129.412 27.1009 130.451 26.4584 130.451 25.1734C130.451 24.5498 130.224 24.0963 129.771 23.8128C129.336 23.5105 128.788 23.2743 128.127 23.1042C127.484 22.9341 126.776 22.7829 126.001 22.6507C125.226 22.5184 124.508 22.3105 123.847 22.0271C123.204 21.7247 122.656 21.2995 122.203 20.7515C121.768 20.2035 121.551 19.4382 121.551 18.4556ZM135.688 10.0087H138.098V26.7324H147.877V29H135.688V10.0087ZM163.284 29H161.017V26.6757C160.488 27.4694 159.788 28.1024 158.919 28.5748C158.069 29.0283 156.992 29.2551 155.688 29.2551C154.649 29.2551 153.685 29.0567 152.797 28.6599C151.908 28.263 151.143 27.7245 150.501 27.0442C149.858 26.3639 149.348 25.5702 148.97 24.6632C148.611 23.7561 148.431 22.7924 148.431 21.772C148.431 20.7137 148.611 19.7311 148.97 18.824C149.348 17.8981 149.858 17.095 150.501 16.4147C151.143 15.7344 151.908 15.1958 152.797 14.799C153.685 14.4022 154.649 14.2038 155.688 14.2038C156.992 14.2038 158.069 14.44 158.919 14.9124C159.788 15.3659 160.488 15.999 161.017 16.8115V14.4872H163.284V29ZM161.017 20.8082C160.941 20.2035 160.762 19.6366 160.478 19.1075C160.214 18.5784 159.864 18.1154 159.429 17.7186C158.995 17.3217 158.485 17.0099 157.899 16.7832C157.313 16.5564 156.671 16.443 155.971 16.443C155.178 16.443 154.46 16.5942 153.817 16.8966C153.175 17.18 152.636 17.5674 152.201 18.0587C151.767 18.55 151.427 19.1169 151.181 19.7594C150.954 20.4019 150.841 21.0728 150.841 21.772C150.841 22.4522 150.954 23.1136 151.181 23.7561C151.427 24.3797 151.767 24.9372 152.201 25.4285C152.636 25.9009 153.175 26.2883 153.817 26.5907C154.46 26.8741 155.178 27.0158 155.971 27.0158C156.671 27.0158 157.304 26.9024 157.87 26.6757C158.456 26.4489 158.966 26.1466 159.401 25.7686C159.836 25.3907 160.195 24.9466 160.478 24.4364C160.762 23.9073 160.941 23.3498 161.017 22.764V20.8082ZM181.214 21.772C181.214 22.7924 181.025 23.7561 180.647 24.6632C180.288 25.5702 179.788 26.3639 179.145 27.0442C178.503 27.7245 177.737 28.263 176.849 28.6599C175.961 29.0567 174.997 29.2551 173.958 29.2551C172.654 29.2551 171.577 29.0283 170.727 28.5748C169.876 28.1213 169.186 27.4977 168.657 26.704V29H166.39V8.5914H168.657V16.7832C169.186 15.9895 169.876 15.3659 170.727 14.9124C171.577 14.44 172.654 14.2038 173.958 14.2038C174.997 14.2038 175.961 14.4022 176.849 14.799C177.737 15.1958 178.503 15.7344 179.145 16.4147C179.788 17.095 180.288 17.8981 180.647 18.824C181.025 19.7311 181.214 20.7137 181.214 21.772ZM168.657 20.6381V22.9341C168.752 23.501 168.941 24.0301 169.224 24.5214C169.508 25.0128 169.867 25.4474 170.301 25.8253C170.736 26.1844 171.237 26.4773 171.804 26.704C172.371 26.9119 172.994 27.0158 173.674 27.0158C174.468 27.0158 175.186 26.8741 175.829 26.5907C176.471 26.2883 177.01 25.9009 177.444 25.4285C177.879 24.9372 178.21 24.3797 178.436 23.7561C178.682 23.1136 178.805 22.4522 178.805 21.772C178.805 21.0728 178.682 20.4019 178.436 19.7594C178.21 19.1169 177.879 18.55 177.444 18.0587C177.01 17.5674 176.471 17.18 175.829 16.8966C175.186 16.5942 174.468 16.443 173.674 16.443C172.994 16.443 172.361 16.5564 171.775 16.7832C171.208 16.9911 170.708 17.284 170.273 17.6619C169.857 18.0398 169.508 18.4839 169.224 18.9941C168.941 19.5043 168.752 20.0523 168.657 20.6381Z" fill="#05231C"/>
<circle cx="20" cy="20" r="20" fill="#05231C"/>
<path d="M13.75 11.875C13.75 10.8395 14.5895 10 15.625 10C16.6605 10 17.5 10.8395 17.5 11.875V26.25C15.4289 26.25 13.75 24.5711 13.75 22.5V11.875Z" fill="white"/>
<path d="M18.75 6.875C18.75 5.83947 19.5895 5 20.625 5C21.6605 5 22.5 5.83947 22.5 6.875V31.25C22.5 33.3211 20.8211 35 18.75 35V6.875Z" fill="white"/>
<circle cx="25" cy="27.5" r="1.25" fill="white"/>
</svg>
