<svg width="183" height="40" viewBox="0 0 183 40" fill="none" xmlns="http://www.w3.org/2000/svg">
<g clip-path="url(#clip0_1835_1138)">
<circle cx="20" cy="20" r="20" fill="white"/>
<path d="M13.75 11.875C13.75 10.8395 14.5895 10 15.625 10V10C16.6605 10 17.5 10.8395 17.5 11.875V26.25V26.25C15.4289 26.25 13.75 24.5711 13.75 22.5V11.875Z" fill="#05231C"/>
<path d="M18.75 6.875C18.75 5.83947 19.5895 5 20.625 5V5C21.6605 5 22.5 5.83947 22.5 6.875V31.25C22.5 33.3211 20.8211 35 18.75 35V35V6.875Z" fill="#05231C"/>
<circle cx="25.4178" cy="27.0819" r="1.66782" fill="#05231C"/>
<path d="M68.8528 31H64.6715L56.273 20.7991H52.6684V31H49.6045V6.84955H52.6684V17.9155H56.2369L64.1669 6.84955H68.0238L58.9764 19.3213L68.8528 31ZM85.2183 31H82.3347V28.0443C81.6618 29.0535 80.7727 29.8586 79.6673 30.4593C78.5859 31.036 77.2162 31.3244 75.5581 31.3244C74.2364 31.3244 73.0109 31.0721 71.8815 30.5675C70.7521 30.0628 69.7788 29.378 68.9618 28.5129C68.1448 27.6478 67.4959 26.6385 67.0153 25.485C66.5588 24.3316 66.3305 23.106 66.3305 21.8084C66.3305 20.4627 66.5588 19.2131 67.0153 18.0597C67.4959 16.8822 68.1448 15.8609 68.9618 14.9958C69.7788 14.1307 70.7521 13.4459 71.8815 12.9412C73.0109 12.4366 74.2364 12.1843 75.5581 12.1843C77.2162 12.1843 78.5859 12.4847 79.6673 13.0854C80.7727 13.6621 81.6618 14.4672 82.3347 15.5005V12.5447H85.2183V31ZM82.3347 20.5829C82.2385 19.8139 82.0102 19.093 81.6498 18.4201C81.3134 17.7473 80.8688 17.1585 80.3161 16.6539C79.7634 16.1493 79.1146 15.7528 78.3697 15.4644C77.6247 15.176 76.8077 15.0319 75.9186 15.0319C74.9093 15.0319 73.9961 15.2241 73.1791 15.6086C72.3621 15.969 71.6772 16.4617 71.1245 17.0865C70.5718 17.7112 70.1393 18.4322 69.8269 19.2492C69.5385 20.0662 69.3943 20.9193 69.3943 21.8084C69.3943 22.6735 69.5385 23.5146 69.8269 24.3316C70.1393 25.1246 70.5718 25.8335 71.1245 26.4583C71.6772 27.059 72.3621 27.5517 73.1791 27.9361C73.9961 28.2966 74.9093 28.4768 75.9186 28.4768C76.8077 28.4768 77.6127 28.3326 78.3336 28.0443C79.0786 27.7559 79.7274 27.3714 80.2801 26.8908C80.8328 26.4102 81.2893 25.8455 81.6498 25.1967C82.0102 24.5238 82.2385 23.8149 82.3347 23.07V20.5829ZM85.9231 21.7724C85.9231 20.4267 86.1755 19.1771 86.6801 18.0236C87.1847 16.8462 87.8696 15.8249 88.7347 14.9598C89.5998 14.0947 90.6091 13.4218 91.7625 12.9412C92.94 12.4366 94.1896 12.1843 95.5112 12.1843C96.5926 12.1843 97.6259 12.3525 98.6111 12.6889C99.5964 13.0013 100.486 13.4579 101.279 14.0586C102.072 14.6354 102.744 15.3322 103.297 16.1493C103.85 16.9423 104.246 17.8194 104.487 18.7806H101.17C100.762 17.6992 100.065 16.8101 99.0797 16.1132C98.0945 15.3923 96.905 15.0319 95.5112 15.0319C94.526 15.0319 93.6249 15.2241 92.8078 15.6086C92.0148 15.969 91.33 16.4617 90.7532 17.0865C90.2005 17.7112 89.768 18.4322 89.4556 19.2492C89.1672 20.0662 89.0231 20.9073 89.0231 21.7724C89.0231 22.6375 89.1672 23.4785 89.4556 24.2955C89.768 25.0885 90.2005 25.7974 90.7532 26.4222C91.33 27.047 92.0148 27.5517 92.8078 27.9361C93.6249 28.2966 94.526 28.4768 95.5112 28.4768C96.905 28.4768 98.0945 28.1284 99.0797 27.4315C100.065 26.7346 100.762 25.8455 101.17 24.7641H104.487C104.246 25.7253 103.85 26.6145 103.297 27.4315C102.744 28.2245 102.072 28.9094 101.279 29.4861C100.486 30.0628 99.5964 30.5194 98.6111 30.8558C97.6259 31.1682 96.5926 31.3244 95.5112 31.3244C94.1896 31.3244 92.94 31.0721 91.7625 30.5675C90.6091 30.0628 89.5998 29.378 88.7347 28.5129C87.8696 27.6478 87.1847 26.6385 86.6801 25.485C86.1755 24.3316 85.9231 23.094 85.9231 21.7724ZM110.28 6.84955V12.5447H115.723V15.2481H110.28V25.6292C110.28 26.8548 110.532 27.6718 111.037 28.0803C111.542 28.4888 112.214 28.6931 113.056 28.6931C113.8 28.6931 114.69 28.597 115.723 28.4047V31.1081C115.17 31.1802 114.617 31.2403 114.065 31.2884C113.536 31.3605 113.031 31.3965 112.551 31.3965C111.806 31.3965 111.109 31.3124 110.46 31.1442C109.835 30.976 109.295 30.6876 108.838 30.2791C108.382 29.8465 108.021 29.2698 107.757 28.5489C107.517 27.804 107.396 26.8788 107.396 25.7734V15.2481H103.792V12.5447H107.396V6.84955H110.28ZM132.848 31H129.965V27.4675C129.244 28.6691 128.283 29.6183 127.081 30.3151C125.88 31.012 124.522 31.3605 123.008 31.3605C121.975 31.3605 121.05 31.1922 120.233 30.8558C119.415 30.4954 118.719 30.0148 118.142 29.414C117.589 28.8132 117.169 28.1043 116.88 27.2873C116.592 26.4463 116.448 25.5451 116.448 24.5839V12.5447H119.331V24.0072C119.331 25.5211 119.764 26.6745 120.629 27.4675C121.494 28.2365 122.612 28.621 123.981 28.621C124.822 28.621 125.591 28.4288 126.288 28.0443C127.009 27.6358 127.634 27.1191 128.163 26.4943C128.691 25.8455 129.112 25.1366 129.424 24.3676C129.761 23.5746 129.941 22.7816 129.965 21.9886V12.5447H132.848V31ZM134.335 17.5911C134.335 15.933 134.947 14.6234 136.173 13.6621C137.423 12.6769 139.117 12.1843 141.255 12.1843C143.37 12.1843 145.052 12.6649 146.302 13.6261C147.551 14.5873 148.212 15.909 148.284 17.5911H145.22C145.172 16.7741 144.8 16.1252 144.103 15.6446C143.43 15.14 142.541 14.8877 141.436 14.8877C138.744 14.8877 137.399 15.7528 137.399 17.483C137.399 18.0837 137.555 18.5643 137.867 18.9248C138.204 19.2852 138.636 19.5856 139.165 19.8259C139.693 20.0422 140.294 20.2224 140.967 20.3666C141.664 20.5108 142.361 20.667 143.058 20.8352C143.755 20.9794 144.439 21.1596 145.112 21.3759C145.809 21.5921 146.422 21.8925 146.951 22.277C147.479 22.6375 147.9 23.106 148.212 23.6828C148.549 24.2595 148.717 24.9804 148.717 25.8455C148.717 27.5517 148.08 28.8853 146.806 29.8465C145.557 30.8078 143.803 31.2884 141.544 31.2884C140.39 31.2884 139.345 31.1562 138.408 30.8919C137.471 30.6275 136.666 30.2671 135.993 29.8105C135.344 29.3299 134.839 28.7532 134.479 28.0803C134.118 27.4075 133.938 26.6625 133.938 25.8455H137.038C137.375 27.6718 138.925 28.585 141.688 28.585C144.331 28.585 145.653 27.7679 145.653 26.1339C145.653 25.3409 145.365 24.7641 144.788 24.4037C144.235 24.0192 143.538 23.7188 142.697 23.5025C141.88 23.2863 140.979 23.094 139.994 22.9258C139.009 22.7576 138.095 22.4933 137.254 22.1328C136.437 21.7483 135.74 21.2077 135.164 20.5108C134.611 19.8139 134.335 18.8407 134.335 17.5911ZM162.334 6.84955H166.263L175.562 31H172.282L170.264 25.7374H158.333L156.314 31H153.034L162.334 6.84955ZM169.182 22.8537L164.316 10.0215L159.414 22.8537H169.182ZM176.285 6.84955H179.348V31H176.285V6.84955Z" fill="white"/>
</g>
<defs>
<clipPath id="clip0_1835_1138">
<rect width="183" height="40" fill="white"/>
</clipPath>
</defs>
</svg>
