<svg width="183" height="40" viewBox="122 417 752 166" fill="none" xmlns="http://www.w3.org/2000/svg">
<path d="M383.329 535H369.684L342.275 501.71H330.512V535H320.513V456.186H330.512V492.299H342.158L368.037 456.186H380.624L351.098 496.887L383.329 535ZM442.619 535H433.208V525.354C431.013 528.648 428.111 531.275 424.504 533.236C420.975 535.118 416.504 536.059 411.093 536.059C406.78 536.059 402.781 535.235 399.095 533.588C395.409 531.942 392.233 529.707 389.567 526.883C386.9 524.06 384.783 520.766 383.214 517.002C381.724 513.238 380.979 509.238 380.979 505.004C380.979 500.612 381.724 496.534 383.214 492.77C384.783 488.927 386.9 485.594 389.567 482.771C392.233 479.948 395.409 477.713 399.095 476.066C402.781 474.419 406.78 473.596 411.093 473.596C416.504 473.596 420.975 474.576 424.504 476.536C428.111 478.419 431.013 481.046 433.208 484.418V474.772H442.619V535ZM433.208 501.004C432.895 498.495 432.15 496.142 430.973 493.946C429.875 491.75 428.425 489.829 426.621 488.182C424.817 486.535 422.7 485.241 420.269 484.3C417.838 483.359 415.171 482.889 412.27 482.889C408.976 482.889 405.996 483.516 403.33 484.771C400.663 485.947 398.428 487.555 396.625 489.594C394.821 491.633 393.409 493.985 392.39 496.652C391.449 499.318 390.978 502.102 390.978 505.004C390.978 507.827 391.449 510.572 392.39 513.238C393.409 515.826 394.821 518.139 396.625 520.178C398.428 522.139 400.663 523.746 403.33 525.001C405.996 526.178 408.976 526.766 412.27 526.766C415.171 526.766 417.798 526.295 420.151 525.354C422.582 524.413 424.7 523.158 426.503 521.59C428.307 520.021 429.797 518.178 430.973 516.061C432.15 513.865 432.895 511.552 433.208 509.121V501.004ZM450.801 504.886C450.801 500.494 451.624 496.416 453.271 492.652C454.918 488.809 457.153 485.477 459.976 482.653C462.799 479.83 466.093 477.634 469.857 476.066C473.7 474.419 477.778 473.596 482.091 473.596C485.62 473.596 488.992 474.145 492.208 475.242C495.423 476.262 498.325 477.752 500.913 479.713C503.5 481.595 505.696 483.869 507.5 486.535C509.304 489.123 510.598 491.986 511.382 495.122H500.56C499.226 491.593 496.952 488.692 493.737 486.418C490.522 484.065 486.64 482.889 482.091 482.889C478.876 482.889 475.935 483.516 473.269 484.771C470.681 485.947 468.446 487.555 466.564 489.594C464.76 491.633 463.348 493.985 462.329 496.652C461.388 499.318 460.917 502.063 460.917 504.886C460.917 507.709 461.388 510.454 462.329 513.12C463.348 515.708 464.76 518.022 466.564 520.061C468.446 522.1 470.681 523.746 473.269 525.001C475.935 526.178 478.876 526.766 482.091 526.766C486.64 526.766 490.522 525.629 493.737 523.354C496.952 521.08 499.226 518.178 500.56 514.65H511.382C510.598 517.786 509.304 520.688 507.5 523.354C505.696 525.942 503.5 528.177 500.913 530.059C498.325 531.942 495.423 533.432 492.208 534.529C488.992 535.549 485.62 536.059 482.091 536.059C477.778 536.059 473.7 535.235 469.857 533.588C466.093 531.942 462.799 529.707 459.976 526.883C457.153 524.06 454.918 520.766 453.271 517.002C451.624 513.238 450.801 509.199 450.801 504.886ZM536.17 456.186V474.772H553.933V483.594H536.17V517.473C536.17 521.472 536.994 524.139 538.641 525.472C540.287 526.805 542.483 527.471 545.228 527.471C547.659 527.471 550.561 527.158 553.933 526.53V535.353C552.129 535.588 550.325 535.784 548.522 535.941C546.796 536.176 545.15 536.294 543.581 536.294C541.15 536.294 538.876 536.019 536.758 535.471C534.719 534.922 532.955 533.981 531.465 532.647C529.975 531.236 528.799 529.354 527.936 527.001C527.152 524.57 526.76 521.551 526.76 517.943V483.594H514.996V474.772H526.76V456.186H536.17ZM615.703 535H606.292V523.472C603.94 527.393 600.803 530.491 596.882 532.765C592.961 535.039 588.53 536.176 583.589 536.176C580.217 536.176 577.198 535.627 574.531 534.529C571.865 533.353 569.591 531.785 567.709 529.824C565.905 527.864 564.533 525.55 563.592 522.884C562.651 520.139 562.18 517.198 562.18 514.061V474.772H571.591V512.179C571.591 517.12 573.002 520.884 575.825 523.472C578.649 525.981 582.295 527.236 586.765 527.236C589.51 527.236 592.02 526.609 594.294 525.354C596.646 524.021 598.685 522.335 600.411 520.296C602.136 518.178 603.508 515.865 604.528 513.356C605.626 510.768 606.214 508.18 606.292 505.592V474.772H615.703V535ZM626.435 491.241C626.435 485.829 628.435 481.555 632.434 478.419C636.512 475.203 642.041 473.596 649.021 473.596C655.922 473.596 661.411 475.164 665.489 478.301C669.567 481.438 671.724 485.751 671.959 491.241H661.96C661.803 488.574 660.588 486.457 658.314 484.888C656.118 483.242 653.216 482.418 649.609 482.418C640.826 482.418 636.434 485.241 636.434 490.888C636.434 492.848 636.944 494.417 637.963 495.593C639.061 496.769 640.473 497.75 642.198 498.534C643.923 499.24 645.884 499.828 648.08 500.298C650.354 500.769 652.628 501.279 654.902 501.828C657.177 502.298 659.412 502.886 661.607 503.592C663.882 504.298 665.881 505.278 667.607 506.533C669.332 507.709 670.704 509.238 671.724 511.121C672.822 513.003 673.371 515.355 673.371 518.178C673.371 523.746 671.292 528.099 667.136 531.236C663.058 534.373 657.333 535.941 649.962 535.941C646.197 535.941 642.786 535.51 639.728 534.647C636.669 533.784 634.042 532.608 631.846 531.118C629.729 529.55 628.082 527.668 626.906 525.472C625.729 523.276 625.141 520.845 625.141 518.178H635.258C636.356 524.139 641.414 527.119 650.432 527.119C659.059 527.119 663.372 524.452 663.372 519.12C663.372 516.532 662.431 514.65 660.549 513.473C658.745 512.218 656.471 511.238 653.726 510.532C651.06 509.827 648.119 509.199 644.903 508.65C641.688 508.101 638.708 507.239 635.963 506.062C633.297 504.808 631.023 503.043 629.141 500.769C627.337 498.495 626.435 495.318 626.435 491.241ZM685.106 456.186H695.105V525.589H735.689V535H685.106V456.186ZM799.63 535H790.22V525.354C788.024 528.648 785.122 531.275 781.515 533.236C777.986 535.118 773.516 536.059 768.105 536.059C763.791 536.059 759.792 535.235 756.106 533.588C752.42 531.942 749.244 529.707 746.578 526.883C743.911 524.06 741.794 520.766 740.226 517.002C738.736 513.238 737.991 509.238 737.991 505.004C737.991 500.612 738.736 496.534 740.226 492.77C741.794 488.927 743.911 485.594 746.578 482.771C749.244 479.948 752.42 477.713 756.106 476.066C759.792 474.419 763.791 473.596 768.105 473.596C773.516 473.596 777.986 474.576 781.515 476.536C785.122 478.419 788.024 481.046 790.22 484.418V474.772H799.63V535ZM790.22 501.004C789.906 498.495 789.161 496.142 787.985 493.946C786.887 491.75 785.436 489.829 783.632 488.182C781.828 486.535 779.711 485.241 777.28 484.3C774.849 483.359 772.183 482.889 769.281 482.889C765.987 482.889 763.007 483.516 760.341 484.771C757.675 485.947 755.44 487.555 753.636 489.594C751.832 491.633 750.421 493.985 749.401 496.652C748.46 499.318 747.989 502.102 747.989 505.004C747.989 507.827 748.46 510.572 749.401 513.238C750.421 515.826 751.832 518.139 753.636 520.178C755.44 522.139 757.675 523.746 760.341 525.001C763.007 526.178 765.987 526.766 769.281 526.766C772.183 526.766 774.81 526.295 777.162 525.354C779.593 524.413 781.711 523.158 783.515 521.59C785.318 520.021 786.808 518.178 787.985 516.061C789.161 513.865 789.906 511.552 790.22 509.121V501.004ZM874.04 505.004C874.04 509.238 873.255 513.238 871.687 517.002C870.197 520.766 868.119 524.06 865.452 526.883C862.786 529.707 859.61 531.942 855.924 533.588C852.238 535.235 848.239 536.059 843.925 536.059C838.514 536.059 834.044 535.118 830.515 533.236C826.986 531.353 824.124 528.765 821.928 525.472V535H812.518V450.304H821.928V484.3C824.124 481.006 826.986 478.419 830.515 476.536C834.044 474.576 838.514 473.596 843.925 473.596C848.239 473.596 852.238 474.419 855.924 476.066C859.61 477.713 862.786 479.948 865.452 482.771C868.119 485.594 870.197 488.927 871.687 492.77C873.255 496.534 874.04 500.612 874.04 505.004ZM821.928 500.298V509.827C822.32 512.179 823.104 514.375 824.281 516.414C825.457 518.453 826.947 520.257 828.751 521.825C830.555 523.315 832.633 524.531 834.985 525.472C837.338 526.334 839.926 526.766 842.749 526.766C846.043 526.766 849.023 526.178 851.689 525.001C854.356 523.746 856.591 522.139 858.394 520.178C860.198 518.139 861.57 515.826 862.511 513.238C863.531 510.572 864.041 507.827 864.041 505.004C864.041 502.102 863.531 499.318 862.511 496.652C861.57 493.985 860.198 491.633 858.394 489.594C856.591 487.555 854.356 485.947 851.689 484.771C849.023 483.516 846.043 482.889 842.749 482.889C839.926 482.889 837.299 483.359 834.868 484.3C832.515 485.163 830.437 486.378 828.633 487.947C826.908 489.515 825.457 491.358 824.281 493.476C823.104 495.593 822.32 497.867 821.928 500.298Z" fill="white"/>
<circle cx="205" cy="500" r="83" fill="white"/>
<path d="M179.062 466.281C179.062 461.984 182.546 458.5 186.844 458.5V458.5C191.141 458.5 194.625 461.984 194.625 466.281V525.938V525.938C186.03 525.938 179.062 518.97 179.062 510.375V466.281Z" fill="#05231C"/>
<path d="M199.812 445.531C199.812 441.234 203.296 437.75 207.594 437.75V437.75C211.891 437.75 215.375 441.234 215.375 445.531V546.688C215.375 555.282 208.407 562.25 199.812 562.25V562.25V445.531Z" fill="#05231C"/>
<circle cx="225.75" cy="531.125" r="5.1875" fill="#05231C"/>
</svg>
