<svg width="80" height="72" viewBox="0 0 80 72" fill="none" xmlns="http://www.w3.org/2000/svg">
<g clip-path="url(#clip0_5967_1878)">
<path d="M71.8358 9.81833H59.9757L54.0952 0.862004C53.9505 0.641707 53.7544 0.461008 53.5245 0.335873C53.2946 0.210738 53.0379 0.145022 52.777 0.144531H27.3652C27.1044 0.145022 26.8476 0.210738 26.6177 0.335873C26.3878 0.461008 26.1918 0.641707 26.047 0.862004L20.1586 9.81833H8.30641C6.20028 9.81833 4.18041 10.6677 2.69115 12.1795C1.20189 13.6913 0.365234 15.7418 0.365234 17.8798V63.0242C0.365234 65.1623 1.20189 67.2127 2.69115 68.7245C4.18041 70.2364 6.20028 71.0857 8.30641 71.0857H71.8358C73.942 71.0857 75.9618 70.2364 77.4511 68.7245C78.9403 67.2127 79.777 65.1623 79.777 63.0242V17.8798C79.777 15.7418 78.9403 13.6913 77.4511 12.1795C75.9618 10.6677 73.942 9.81833 71.8358 9.81833ZM76.6005 63.0242C76.6005 64.307 76.0985 65.5373 75.205 66.4444C74.3114 67.3515 73.0995 67.8611 71.8358 67.8611H8.30641C7.04273 67.8611 5.83081 67.3515 4.93725 66.4444C4.0437 65.5373 3.54171 64.307 3.54171 63.0242V17.8798C3.54171 16.597 4.0437 15.3667 4.93725 14.4596C5.83081 13.5525 7.04273 13.0429 8.30641 13.0429H21.0123C21.2738 13.0431 21.5314 12.9777 21.762 12.8525C21.9927 12.7274 22.1893 12.5463 22.3345 12.3255L28.211 3.36913H51.9233L57.8077 12.3255C57.9529 12.5463 58.1495 12.7274 58.3802 12.8525C58.6109 12.9777 58.8684 13.0431 59.1299 13.0429H71.8358C73.0995 13.0429 74.3114 13.5525 75.205 14.4596C76.0985 15.3667 76.6005 16.597 76.6005 17.8798V63.0242ZM40.0711 22.7167C36.9299 22.7167 33.8592 23.6623 31.2474 25.4339C28.6355 27.2056 26.5998 29.7236 25.3977 32.6697C24.1956 35.6158 23.8811 38.8576 24.4939 41.9852C25.1068 45.1127 26.6194 47.9856 28.8406 50.2404C31.0618 52.4952 33.8918 54.0308 36.9726 54.6529C40.0535 55.275 43.2469 54.9557 46.149 53.7354C49.0512 52.5151 51.5316 50.4486 53.2768 47.7972C55.022 45.1458 55.9535 42.0285 55.9535 38.8397C55.9535 34.5636 54.2802 30.4627 51.3016 27.439C48.3231 24.4154 44.2834 22.7167 40.0711 22.7167ZM40.0711 51.7381C37.5581 51.7381 35.1016 50.9816 33.0121 49.5643C30.9226 48.147 29.2941 46.1326 28.3324 43.7757C27.3707 41.4188 27.1191 38.8254 27.6094 36.3234C28.0996 33.8213 29.3098 31.523 31.0867 29.7192C32.8637 27.9153 35.1276 26.6868 37.5923 26.1892C40.057 25.6915 42.6118 25.9469 44.9334 26.9232C47.2551 27.8994 49.2395 29.5526 50.6357 31.6738C52.0318 33.7949 52.777 36.2887 52.777 38.8397C52.777 42.2606 51.4383 45.5413 49.0555 47.9603C46.6727 50.3792 43.4409 51.7381 40.0711 51.7381Z" fill="white"/>
</g>
<defs>
<clipPath id="clip0_5967_1878">
<rect width="79.4118" height="72" fill="white"/>
</clipPath>
</defs>
</svg>
