<svg width="117" height="117" viewBox="0 0 117 117" fill="none" xmlns="http://www.w3.org/2000/svg">
<path d="M38.1845 28.1553C38.352 25.6779 38.9541 23.8207 40.913 22.1169C41.9355 21.2392 43.1727 20.6487 44.4983 20.406C45.9092 20.1558 48.0827 20.2326 49.5881 20.2334L57.1571 20.2353L66.6175 20.2352L69.5918 20.2339C72.711 20.2311 75.0227 20.5007 77.215 23.0444C78.5043 24.5398 78.9497 26.1955 79.0293 28.1317C80.2559 28.1831 81.5897 28.1569 82.8258 28.1564L89.0983 28.1549C91.1911 28.1547 93.796 28.001 95.7245 28.5397C99.1136 29.4865 102.082 32.5972 102.714 36.0649C102.763 36.3356 102.841 36.7912 102.939 37.0362V81.0383C102.709 81.6373 102.654 82.4301 102.423 83.0887C101.054 87.0054 97.4805 89.8768 93.2757 89.9776C91.9078 90.0104 90.5402 90.0057 89.1657 90.0057L81.9348 90.0061L59.5786 90.0052H36.0843L28.4622 90.0057C27.1313 90.0061 25.449 90.0506 24.1383 89.9819C23.0489 89.9347 21.9731 89.7207 20.9488 89.347C18.416 88.3998 16.355 86.4981 15.2075 84.0498C14.9408 83.4663 14.8355 83.1411 14.6862 82.5248C14.6192 82.2484 14.4638 81.3752 14.3633 81.181V36.9858C14.5324 36.6284 14.542 36.2352 14.6351 35.857C15.3742 32.8549 17.5859 30.1152 20.4574 28.9224C21.3404 28.5569 22.2716 28.3211 23.2221 28.2223C24.5619 28.0812 27.0992 28.1543 28.5446 28.1546L38.1845 28.1553ZM71.6475 85.4839L86.8744 85.4826L91.0177 85.4852C93.2956 85.4861 95.1441 85.6318 96.8676 83.853C97.7819 82.9097 98.2676 81.9318 98.422 80.6183C98.6396 78.9433 98.56 77.0926 98.5591 75.3886L98.5587 66.9821L98.5604 38.7542C98.5505 36.9227 98.2503 35.5166 96.8862 34.185C96.2046 33.5127 95.3517 33.0398 94.4206 32.8175C93.5327 32.6119 92.3865 32.6332 91.4701 32.6342L88.7453 32.6377L79.5496 32.6362C78.6539 32.6378 76.6268 32.7614 75.8954 32.4026C73.2581 31.109 75.6969 27.4621 73.6235 25.5599C72.3005 24.3463 70.6519 24.6403 68.9439 24.6406L63.738 24.6421L46.6704 24.6423C46.3822 24.645 45.9964 24.6489 45.7133 24.6748C42.1219 25.2727 43.0036 28.1539 42.753 30.7973C42.6772 31.5969 41.6947 32.5129 40.9119 32.5841C39.8149 32.687 38.6543 32.6365 37.5461 32.6362L29.4313 32.6364L26.4514 32.6357C23.8152 32.6363 21.6102 32.5138 19.8709 34.8886C19.3147 35.653 18.9732 36.5523 18.8817 37.4932C18.7847 38.543 18.8215 39.8351 18.8216 40.9094L18.8228 46.1894L18.824 63.2462L18.8241 75.1187L18.8208 78.3698C18.819 80.8726 18.8643 82.8461 21.117 84.4602C21.8559 84.9991 22.7235 85.3338 23.6328 85.4316C24.306 85.5038 25.0998 85.4865 25.7811 85.4861L28.7958 85.4843L38.7173 85.4835L71.6475 85.4839Z" fill="#E3E3E3"/>
<path d="M57.7736 38.3791C69.2032 37.8968 78.8582 46.775 79.3335 58.2047C79.8093 69.6347 70.9254 79.2842 59.4953 79.753C48.0746 80.2214 38.4348 71.3465 37.9596 59.9265C37.4845 48.506 46.3536 38.861 57.7736 38.3791ZM59.1065 75.2978C68.0397 75.0474 75.073 67.5938 74.8053 58.6614C74.5371 49.7289 67.0697 42.7102 58.1382 42.9955C49.2309 43.2801 42.2357 50.7224 42.5028 59.6302C42.77 68.5379 50.1985 75.5474 59.1065 75.2978Z" fill="#E3E3E3"/>
<path d="M88.2362 24.9989C90.493 24.7862 92.4963 26.4391 92.7164 28.6952C92.9366 30.9512 91.2905 32.9603 89.035 33.1877C86.7692 33.4162 84.749 31.7606 84.5275 29.4941C84.3065 27.2276 85.969 25.2126 88.2362 24.9989Z" fill="#E2E3E0"/>
</svg>
