<svg width="46" height="46" viewBox="0 0 46 46" fill="none" xmlns="http://www.w3.org/2000/svg">
<path d="M33.0629 27.752C33.0629 27.0436 32.4886 26.4693 31.7803 26.4693C31.0719 26.4693 30.4977 27.0436 30.4977 27.752H31.7803H33.0629ZM30.8733 45.3328C31.3742 45.8337 32.1863 45.8337 32.6872 45.3328L40.8497 37.1703C41.3506 36.6694 41.3506 35.8573 40.8497 35.3565C40.3488 34.8556 39.5367 34.8556 39.0358 35.3565L31.7803 42.612L24.5247 35.3565C24.0239 34.8556 23.2118 34.8556 22.7109 35.3565C22.21 35.8573 22.21 36.6694 22.7109 37.1703L30.8733 45.3328ZM31.7803 27.752H30.4977V44.4259H31.7803H33.0629V27.752H31.7803Z" fill="white"/>
<path d="M18.2922 34.5389C15.807 34.5389 13.6737 33.8578 11.8922 32.4954C10.1256 31.1331 8.7708 29.2019 7.82765 26.7018C6.88449 24.2017 6.41291 21.2375 6.41291 17.8092V17.7643C6.41291 14.336 6.88449 11.3718 7.82765 8.87167C8.7708 6.37156 10.1256 4.44782 11.8922 3.10046C13.6737 1.73812 15.807 1.05696 18.2922 1.05696C20.7773 1.05696 22.9106 1.73812 24.6921 3.10046C26.4737 4.44782 27.836 6.37156 28.7792 8.87167C29.7373 11.3718 30.2163 14.336 30.2163 17.7643V17.8092C30.2163 21.2375 29.7373 24.2017 28.7792 26.7018C27.836 29.2019 26.4737 31.1331 24.6921 32.4954C22.9106 33.8578 20.7773 34.5389 18.2922 34.5389ZM18.2922 31.0133C19.9389 31.0133 21.3462 30.4819 22.5139 29.419C23.6966 28.3411 24.5948 26.8141 25.2086 24.8379C25.8374 22.8618 26.1518 20.5189 26.1518 17.8092V17.7643C26.1518 15.0546 25.8374 12.7191 25.2086 10.758C24.5948 8.78184 23.6966 7.26231 22.5139 6.19939C21.3462 5.13647 19.9389 4.60501 18.2922 4.60501C16.6454 4.60501 15.2381 5.13647 14.0704 6.19939C12.9027 7.26231 12.012 8.78184 11.3982 10.758C10.7844 12.7191 10.4775 15.0546 10.4775 17.7643V17.8092C10.4775 20.5189 10.7844 22.8618 11.3982 24.8379C12.012 26.8141 12.9027 28.3411 14.0704 29.419C15.2381 30.4819 16.6454 31.0133 18.2922 31.0133Z" fill="white"/>
</svg>
