<svg width="37" height="37" viewBox="0 0 37 37" fill="none" xmlns="http://www.w3.org/2000/svg">
<path d="M9.21148 3.07031L4.60547 9.21166V30.7064C4.60547 31.5208 4.92899 32.3018 5.50485 32.8777C6.08071 33.4535 6.86175 33.7771 7.67614 33.7771H29.1709C29.9853 33.7771 30.7663 33.4535 31.3422 32.8777C31.918 32.3018 32.2415 31.5208 32.2415 30.7064V9.21166L27.6355 3.07031H9.21148Z" stroke="#F9FAF7" stroke-width="3.07067" stroke-linecap="round" stroke-linejoin="round"/>
<path d="M4.60547 9.21191H32.2415" stroke="#F9FAF7" stroke-width="3.07067" stroke-linecap="round" stroke-linejoin="round"/>
<path d="M24.5639 15.3535C24.5639 16.9823 23.9169 18.5444 22.7652 19.6961C21.6135 20.8478 20.0514 21.4949 18.4226 21.4949C16.7938 21.4949 15.2317 20.8478 14.08 19.6961C12.9283 18.5444 12.2813 16.9823 12.2812 15.3535" stroke="#F9FAF7" stroke-width="3.07067" stroke-linecap="round" stroke-linejoin="round"/>
</svg>
