<svg width="57" height="57" viewBox="0 0 57 57" fill="none" xmlns="http://www.w3.org/2000/svg">
<g opacity="0.8" clip-path="url(#clip0_5090_1275)">
<path d="M21.6273 0H25.3093L25.3609 0.0167043C25.8723 0.176977 26.7766 0.214678 27.3229 0.315121C28.2604 0.487463 29.2019 0.694276 30.1164 0.961936C36.1287 2.71334 41.1877 6.80248 44.1609 12.3139C47.1132 17.8271 47.7611 24.2853 45.9629 30.275C45.2648 32.6008 44.4505 34.1065 43.2617 36.1804L51.9821 45.007L54.4317 47.4839C55.0284 48.0862 55.5987 48.6226 56.1149 49.2995C56.646 49.9958 56.7078 50.6144 57 51.3395V52.5303L56.9833 52.5697C56.8074 52.9878 56.7133 53.4041 56.5135 53.8648C55.9713 55.1143 55.0525 56.0075 53.8267 56.5853C53.5854 56.6994 52.9337 56.8842 52.7721 57H51.557C50.992 56.8369 49.9652 56.5636 49.5117 56.2246C48.249 55.2796 46.981 53.8772 45.8568 52.749L39.5694 46.4426C38.6071 45.478 37.2553 44.0344 36.2688 43.1667C35.9113 43.3345 35.0524 43.8746 34.6317 44.1032C33.5531 44.6842 32.4308 45.1804 31.2752 45.5873C25.3892 47.6393 18.9307 47.2819 13.3069 44.5931C7.37181 41.7552 2.9086 36.546 1.01427 30.2458C0.750791 29.3718 0.565129 28.5328 0.388566 27.639C0.25683 26.9721 0.230625 25.8642 0 25.2606V21.5649C0.140414 21.2928 0.456513 18.8865 0.586638 18.297C1.01516 16.3494 1.69537 14.466 2.61012 12.694C5.52477 7.01963 10.6368 2.78698 16.7553 0.982126C17.6702 0.709661 18.6031 0.523645 19.5396 0.351734C20.0339 0.261013 21.1837 0.149992 21.582 0.0157588L21.6273 0ZM24.1308 45.305C36.1865 44.9448 45.6707 34.8853 45.3213 22.8293C44.972 10.7733 34.9212 1.27998 22.8649 1.61839C10.7931 1.95723 1.2849 12.0238 1.63469 24.0952C1.98449 36.1667 12.0596 45.6658 24.1308 45.305ZM37.6599 42.1868C41.7952 46.2325 45.815 50.4247 49.9688 54.4526C50.2744 54.749 50.6499 54.9518 51.0427 55.1075C53.6764 55.8333 56.1751 53.1184 55.136 50.611C55.0549 50.4153 54.513 49.7624 54.3587 49.6061C50.8173 46.0188 47.2426 42.4638 43.6886 38.889C43.4397 38.6387 42.5106 37.6602 42.2662 37.5617C40.7234 39.5115 39.616 40.624 37.6599 42.1868Z" fill="white"/>
<path d="M22.7605 4.85626C33.0401 4.44127 41.7084 12.4413 42.1176 22.7211C42.5268 33.001 34.5219 41.6647 24.2418 42.0682C13.9699 42.4713 5.31453 34.4741 4.90564 24.2025C4.49675 13.9308 12.489 5.27092 22.7605 4.85626ZM24.6884 40.3916C34.037 39.7197 41.0741 31.6018 40.4125 22.2524C39.7509 12.9031 31.6407 5.85709 22.2906 6.50842C12.926 7.1608 5.86667 15.2864 6.52935 24.6502C7.19197 34.0141 15.3253 41.0646 24.6884 40.3916Z" fill="white"/>
<path d="M32.4513 15.2542C33.7336 15.1855 33.4601 16.7067 33.4527 17.6114C33.4249 21.0089 33.501 24.422 33.4382 27.8174C34.2047 27.8336 34.9689 27.7748 35.7366 27.8677C36.6003 27.9722 36.8763 28.6756 36.207 29.2724C36.0728 29.3921 35.7513 29.5558 35.5678 29.5541C34.8356 29.5474 34.1031 29.5462 33.3701 29.5467L27.7773 29.5406L17.2222 29.5398C16.2914 29.5392 11.1518 29.6825 10.7515 29.3195C10.5802 29.1657 10.4815 28.9468 10.4795 28.7165C10.4796 28.4781 10.5743 28.2494 10.743 28.0809C11.1334 27.6877 12.9346 27.8304 13.5873 27.8365L13.5906 23.1357C13.5892 22.3339 13.5668 21.528 13.6147 20.725C13.6423 20.2605 13.8805 19.8981 14.3818 19.9005C15.3615 19.9052 15.2732 20.8804 15.2654 21.6017C15.2429 23.6648 15.3107 25.7493 15.2483 27.8113C15.6945 27.8294 16.1815 27.8269 16.6313 27.8338L19.6377 27.8409C19.6285 27.6904 19.6231 27.5397 19.6216 27.389L19.6326 20.4001C19.6322 19.101 19.6034 17.7889 19.6695 16.494C19.7239 15.4283 21.2633 15.4678 21.2847 16.5796C21.3071 17.2732 21.3292 17.996 21.3073 18.6891C21.2123 21.693 21.4338 24.8254 21.2884 27.8174C22.735 27.8544 24.2583 27.8339 25.7131 27.8425C25.6931 27.5987 25.7022 27.3178 25.705 27.071C25.7296 24.9431 25.6593 22.8075 25.7293 20.6817C25.7625 19.6745 27.2989 19.5646 27.3598 20.7363C27.4023 21.5552 27.395 22.3654 27.3944 23.1908L27.3892 27.8277L31.7969 27.8324C31.8008 26.2428 31.6795 16.2426 31.8959 15.6718C31.9878 15.4295 32.233 15.3474 32.4513 15.2542Z" fill="white"/>
</g>
<defs>
<clipPath id="clip0_5090_1275">
<rect width="57" height="57" fill="white"/>
</clipPath>
</defs>
</svg>
