<svg width="15" height="15" viewBox="0 0 15 15" fill="none" xmlns="http://www.w3.org/2000/svg">
<path d="M8.36426 1C8.36426 0.447715 7.91654 0 7.36426 0C6.81197 0 6.36426 0.447715 6.36426 1H7.36426H8.36426ZM6.65715 14.7071C7.04768 15.0976 7.68084 15.0976 8.07136 14.7071L14.4353 8.34315C14.8259 7.95262 14.8259 7.31946 14.4353 6.92893C14.0448 6.53841 13.4116 6.53841 13.0211 6.92893L7.36426 12.5858L1.7074 6.92893C1.31688 6.53841 0.683714 6.53841 0.29319 6.92893C-0.0973344 7.31946 -0.0973344 7.95262 0.29319 8.34315L6.65715 14.7071ZM7.36426 1H6.36426V14H7.36426H8.36426V1H7.36426Z" fill="white"/>
</svg>
