<svg width="86" height="85" viewBox="0 0 86 85" fill="none" xmlns="http://www.w3.org/2000/svg">
<path d="M41.417 1.26758C44.3971 1.18062 47.3783 1.4145 50.3086 1.96582V1.9668C60.6494 3.95843 69.8252 9.82332 75.9746 18.3408L76.5605 19.1729C82.7949 28.2802 85.1293 39.5019 83.0449 50.3398C80.9755 61.0272 74.7704 70.4656 65.7803 76.6035L65.7793 76.6045C56.3449 83.0589 45.4298 85.0478 34.2178 82.9434C29.4666 81.8925 26.7948 80.8329 22.4941 78.6221L22.1035 78.4209L21.6729 78.5088C20.1403 78.821 17.9506 79.5037 16.5107 79.9062L16.5098 79.9072L7.22559 82.5078H7.22461C6.6137 82.6794 5.55058 83.0126 4.42773 83.3086C3.87872 83.4533 3.35681 83.5772 2.92773 83.6553C2.44793 83.7425 2.25381 83.7374 2.25293 83.7383H2.24902C1.91666 83.6837 1.62071 83.4921 1.43457 83.21H1.43555C1.29946 83.0009 1.24215 82.6929 1.27539 82.5098C1.54697 81.0195 2.07386 79.3595 2.52441 77.7598L2.52539 77.7588L5.09766 68.5781C5.47831 67.2194 6.23483 64.7851 6.51953 63.3008L6.61035 62.8252L6.35742 62.4121C5.89978 61.6636 5.22379 60.2424 4.8252 59.3486L4.82422 59.3467C2.68316 54.5651 1.48354 49.4152 1.29102 44.1797V44.1699L1.25879 43.1514C1.05343 32.639 4.90592 22.435 12.0391 14.6748L12.043 14.6709C18.6786 7.38417 27.7092 2.72055 37.4922 1.52832H37.4941C38.7119 1.37828 40.1225 1.31886 41.417 1.26758Z" stroke="#E8E8E8" stroke-width="2.50117"/>
<path d="M31.1934 20.9189C32.6569 20.9529 33.6405 21.2354 34.4873 21.707C35.3811 22.2049 36.1989 22.952 37.2998 24.0674C38.2615 25.0417 38.9273 25.7273 39.4189 26.4883C39.8256 27.1178 40.1269 27.8253 40.3047 28.8184L40.373 29.2627C40.6017 31.1517 40.0203 33.0494 38.7725 34.4863L38.7715 34.4873C38.5727 34.7165 38.3613 34.9192 38.1123 35.1562C37.8803 35.3772 37.5919 35.6499 37.3418 35.957C36.7739 36.6544 36.4014 37.5287 36.5664 38.7432L36.6025 39.0059L36.7412 39.2314C36.7578 39.2583 36.7747 39.2852 36.791 39.3115C36.8073 39.3378 36.823 39.3638 36.8389 39.3896L36.9033 39.4941L36.9873 39.584C38.9438 41.6914 41.0187 43.7289 43.0557 45.7402L45.0742 47.7451C45.6604 48.3326 46.3601 48.703 47.1611 48.6982C47.9177 48.6937 48.5361 48.3526 48.9805 48.0273C49.4248 47.7021 49.8332 47.2874 50.1553 46.9609C50.5113 46.6001 50.7735 46.3336 51.0205 46.1465C52.3732 45.1256 54.0545 44.6489 55.7334 44.8008L56.0693 44.8398C58.2763 45.1622 59.3521 46.0715 61.0703 47.8486V47.8496C61.8694 48.6769 62.387 49.109 62.9492 49.8711L62.9512 49.873C64.0124 51.3065 64.462 53.1021 64.2031 54.8672C63.8782 56.9784 62.9844 58.0854 61.2959 59.7412C60.3512 60.6677 59.82 61.1719 58.7998 61.9238C56.7358 63.2752 54.3561 64.0677 51.8936 64.2207H51.8906C44.7914 64.6778 37.3198 61.2434 31.4443 55.7861C25.5701 50.3299 21.4785 43.0227 20.9658 36.0146C20.6827 32.1425 21.6192 28.0163 24.1562 25.252C25.425 23.8696 26.3445 22.8635 27.3955 22.1426C28.3797 21.4675 29.5097 21.0278 31.1934 20.9189Z" stroke="#E8E8E8" stroke-width="2.50117"/>
</svg>
